<svg xmlns="http://www.w3.org/2000/svg" width="193.491" height="67.979" viewBox="0 0 193.491 67.979">
  <g id="opnvote-logo" transform="translate(-1.1 -1.021)">
    <rect id="Rechteck_216" data-name="Rechteck 216" width="0.8" height="62.4" transform="translate(78.5 3.8)" fill="#3f3f41"/>
    <path id="Pfad_73" data-name="Pfad 73" d="M63.1,14.5a7.218,7.218,0,0,0-2-.9v-.3c-.5-3.3-2.7-5.1-6.2-5.5-5.2-.5-5.4,3.7-9.1,5.6a11.977,11.977,0,0,1-4.5,1.5,15.278,15.278,0,0,1-8.4-1.6C28.5,11.3,21.8,5.3,17,2S2.1,4.8,2.1,4.8s9.6,4.6,13,8a27.162,27.162,0,0,1,7.5,13.8c.7,2.6,1.6,5.3,1.6,5.3s-2,6.4-7.4,8.6c-3.4,1.4-8.8.7-8.8.7S6,47.7,9.2,52.4c2.5,3.7,8.1,6.4,8.1,6.4a54.686,54.686,0,0,1,4.1-6.5A10.156,10.156,0,0,1,28,48.7c5-.7,10.4,1.6,15.5,5.1C50.2,58.3,59,69,59,69s1.8-16.7-2.4-27.9a30.5,30.5,0,0,1-2.3-13.7c.1-5.4,1.8-7.1,1.8-7.1,2.1-2,2.9-1.2,4.3-2.8a5.388,5.388,0,0,0,.7-1.3c.3,0,.6-.1.9-.1,1.1,0,2.9.1,2.9.1A4.846,4.846,0,0,0,63.1,14.5ZM47.8,40.4c-3.7,3.1-4.4,4.2-8.3,4.4s-8,.4-9.9-1.3c0,0-2.1-1-2.3-1.8a2.55,2.55,0,0,1,0-2.4,67.01,67.01,0,0,1,6.4-7.7c1.9-1.8,5.7-5,7-5.4s3.6-1.1,3.6-1.1a8.958,8.958,0,0,1,3,1.7c1.5,1.2,5.1,6.5,5.1,6.5A13.973,13.973,0,0,1,47.8,40.4Z" fill="#2fb1ce"/>
    <path id="Pfad_74" data-name="Pfad 74" d="M60,65.4l-.7-.7c0-.1-9.3-9.7-15.3-12.8a16.179,16.179,0,0,1-1.8-1c-2.7-1.5-5.4-3.1-9.2-3-4,.1-7.2,1.6-9.1,4.2-1.2,2-2.3,4.1-3.3,6.2l-.2.4-.4-.1c-.2-.1-5.6-2.2-8.2-5.4-3.5-4.2-2-10.5-2-10.8l.1-.3h.3c.1,0,5,.2,7.9-1.3,3.5-1.8,5.2-3,6.7-5.9-.3-.9-1.7-4.9-2.6-6.9-2.3-5.6-4.9-9.7-7.9-12C10.9,13.2,1.9,9.6,1.9,9.5l-.8-.3.6-.4c.4-.3,9.1-6.6,14-3.8,1.8,1,3.9,2.4,6.2,3.9,3.4,2.2,6.9,4.5,9.4,5.5a13.49,13.49,0,0,0,7.7.8,11.8,11.8,0,0,0,4-1.7,9.579,9.579,0,0,0,2.6-2.7c1.2-1.6,2.4-3.3,5.6-3.3h.1v.8c-2.8,0-3.8,1.3-5,2.9a8.647,8.647,0,0,1-2.8,2.9,15.673,15.673,0,0,1-4.2,1.8,15.34,15.34,0,0,1-8.2-.8c-2.6-1-6.1-3.3-9.5-5.6-2.2-1.4-4.3-2.8-6.1-3.8C11.6,3.6,5,7.7,2.9,9c2.3.9,9,3.8,12,6.2s5.8,6.6,8.2,12.3c.9,2.3,2.6,7.1,2.6,7.1l.1.2-.1.2c-1.6,3.2-3.5,4.6-7.2,6.4-2.7,1.3-6.7,1.4-7.9,1.4-.2,1.3-.9,6.3,1.9,9.7,2.1,2.6,6.2,4.5,7.5,5a43.022,43.022,0,0,1,3.2-6c2.1-2.8,5.5-4.4,9.8-4.5,4-.1,7,1.6,9.7,3.1.6.3,1.2.7,1.7,1,5.2,2.7,12.5,9.9,14.8,12.2,0-3.6-.4-16.1-4.4-24.5-.6-1.3-1.4-2.9-2.3-4.6a4.942,4.942,0,0,1-.8,1.8c-1.5,2.5-7,10.4-16.6,9.4-5.5-.6-7.5-2.2-8.3-3.5a2.57,2.57,0,0,1-.3-2.4c1.6-3.9,12.6-15.6,17.7-14.8,3,.4,5.6,3.3,7.8,7a35.318,35.318,0,0,0-.5-5.6c-.8-4.9,1-6.8,1.2-7A5.782,5.782,0,0,1,55,17.3a3.269,3.269,0,0,0,1.5-1.1l.7.5a4.887,4.887,0,0,1-1.8,1.4,5.264,5.264,0,0,0-2,1.6h0s-1.7,1.7-1,6.3a23.578,23.578,0,0,1,.4,7c1,1.8,1.9,3.6,2.8,5.4C60.4,48.5,60,64.2,60,64.3ZM43.9,25.6C39.4,25.6,29,36,27.5,40a1.839,1.839,0,0,0,.2,1.6c.5.9,2.2,2.5,7.6,3.1,9.1,1,14.4-6.6,15.8-9a5.813,5.813,0,0,0,.9-2.5c-2.1-3.6-4.7-7.1-7.7-7.6Z" fill="#3f3f41"/>
    <path id="Pfad_75" data-name="Pfad 75" d="M60,65.4l-.7-.7c0-.1-9.3-9.7-15.3-12.8a16.179,16.179,0,0,1-1.8-1c-2.7-1.5-5.4-3.1-9.2-3-4,.1-7.2,1.6-9.1,4.2-1.2,2-2.3,4.1-3.3,6.2l-.2.4-.4-.1c-.2-.1-5.6-2.2-8.2-5.4-3.5-4.2-2-10.5-2-10.8l.1-.3H11c1.4,0,4.9-.1,7.2-1.3,3.5-1.8,5.2-3,6.7-5.9-.3-.9-1.7-4.9-2.6-6.9-2.3-5.6-4.9-9.7-7.9-12C10.9,13.2,1.9,9.6,1.9,9.5l-.8-.3.6-.4C2,8.6,8,4.3,12.8,4.3a6.3,6.3,0,0,1,3,.7c1.8,1,3.9,2.4,6.2,3.9,3.4,2.2,6.9,4.5,9.4,5.5a13.49,13.49,0,0,0,7.7.8,11.8,11.8,0,0,0,4-1.7,9.579,9.579,0,0,0,2.6-2.7c1.2-1.6,2.4-3.3,5.6-3.3h.1c3.5,0,5.8,1.8,6.5,4.9h0a12.665,12.665,0,0,1,1.8.6,3.7,3.7,0,0,1,1.9,1.8l.2.6H61c-.3,0-1.7,0-2.6.1l-.5.1a6.117,6.117,0,0,1-.5,1.2,4.887,4.887,0,0,1-1.8,1.4,5.264,5.264,0,0,0-2,1.6h0s-1.7,1.7-1,6.3a23.578,23.578,0,0,1,.4,7c1,1.8,1.9,3.7,2.8,5.4,4.8,10.1,4.4,25.8,4.4,25.9ZM33.5,47.1c3.8,0,6.7,1.6,9.2,3.1.6.3,1.2.7,1.7,1,5.2,2.7,12.5,9.9,14.8,12.2,0-3.6-.4-16.1-4.4-24.5C54,37.1,53,35.2,52,33.4v-.2a22.08,22.08,0,0,0-.4-6.8c-.8-4.9,1-6.8,1.2-7a5.782,5.782,0,0,1,2.3-1.8,3.269,3.269,0,0,0,1.5-1.1,2.1,2.1,0,0,0,.4-1.1V15l.3-.1a2.485,2.485,0,0,1,.8-.1c.6,0,1.4-.1,2-.1A2.589,2.589,0,0,0,59,14a6.356,6.356,0,0,0-1.8-.6l-.2-.1v-.6c-.8-3.5-3.6-4.2-5.7-4.2h-.1c-2.7,0-3.7,1.4-4.9,2.9a8.647,8.647,0,0,1-2.8,2.9,15.673,15.673,0,0,1-4.2,1.8,15.34,15.34,0,0,1-8.2-.8c-2.6-1-6.1-3.3-9.5-5.6-2.2-1.4-4.3-2.8-6.1-3.8a5.834,5.834,0,0,0-2.6-.6C9.2,5.3,4.6,8.1,3,9.2c2.3.9,9,3.8,12,6.2s5.8,6.6,8.2,12.3c.9,2.3,2.6,7.1,2.6,7.1l.1.2-.1.2c-1.6,3.2-3.5,4.6-7.2,6.4C16.1,42.9,12.5,43,11,43h-.4c-.2,1.3-.9,6.3,1.9,9.7,2.1,2.6,6.2,4.5,7.5,5a43.022,43.022,0,0,1,3.2-6c2.1-2.8,5.5-4.4,9.8-4.5Z" fill="#3f3f41"/>
    <text id="opn.vote" transform="translate(92.591 41.815)" fill="#3f3f41" font-size="26" font-family="Sansation"><tspan x="0" y="0">opn.vote</tspan></text>
    <g id="Gruppe_84" data-name="Gruppe 84">
      <path id="Pfad_76" data-name="Pfad 76" d="M93.9,35.2c0-4.4,2.1-6.7,6.3-6.7s6.3,2.2,6.3,6.7c0,4.4-2.1,6.7-6.3,6.7C96,41.8,93.9,39.6,93.9,35.2Zm6.3,4.7c2.7,0,4-1.6,4-4.8,0-3.1-1.3-4.7-4-4.7s-4,1.6-4,4.7C96.2,38.3,97.5,39.9,100.2,39.9Z" fill="none" stroke="#3f3f41" stroke-width="0.25"/>
      <path id="Pfad_77" data-name="Pfad 77" d="M109.7,29a25.029,25.029,0,0,1,5.5-.5c4.3,0,6.4,2.1,6.4,6.3,0,4.7-2.1,7-6.4,7a8.149,8.149,0,0,1-3.1-.6v5.5h-2.3V29Zm2.4,10.1a6.428,6.428,0,0,0,3.1.7c2.8,0,4.2-1.7,4.2-5,0-2.9-1.4-4.4-4.1-4.4a14.162,14.162,0,0,0-3.1.3v8.4Z" fill="none" stroke="#3f3f41" stroke-width="0.25"/>
      <path id="Pfad_78" data-name="Pfad 78" d="M124.8,41.8V28.5h1.6l.4,1.7a7.214,7.214,0,0,1,4.5-1.7c3.3,0,5,1.7,5,5v8.4H134V33.5a2.652,2.652,0,0,0-3-3,5.7,5.7,0,0,0-3.8,1.7v9.7h-2.4Z" fill="none" stroke="#3f3f41" stroke-width="0.25"/>
      <path id="Pfad_79" data-name="Pfad 79" d="M141.8,39.5v2.3h-2.3V39.5Z" fill="none" stroke="#3f3f41" stroke-width="0.25"/>
      <path id="Pfad_80" data-name="Pfad 80" d="M143.1,28.5h2.5l3.8,10.4,3.8-10.4h2.5l-5.4,13.3h-2.2Z" fill="none" stroke="#3f3f41" stroke-width="0.25"/>
      <path id="Pfad_81" data-name="Pfad 81" d="M157,35.2c0-4.4,2.1-6.7,6.3-6.7s6.3,2.2,6.3,6.7c0,4.4-2.1,6.7-6.3,6.7C159.2,41.8,157.1,39.6,157,35.2Zm6.4,4.7c2.7,0,4-1.6,4-4.8,0-3.1-1.3-4.7-4-4.7s-4,1.6-4,4.7C159.4,38.3,160.7,39.9,163.4,39.9Z" fill="none" stroke="#3f3f41" stroke-width="0.25"/>
      <path id="Pfad_82" data-name="Pfad 82" d="M172.9,26.3h1.5l.5,2.2h3.6v1.9h-3.2V38c0,1.2.5,1.9,1.6,1.9h1.6v1.9h-2.2c-2.2,0-3.4-1.2-3.4-3.6V26.3Z" fill="none" stroke="#3f3f41" stroke-width="0.25"/>
      <path id="Pfad_83" data-name="Pfad 83" d="M187,28.5c3.8,0,5.7,1.9,5.7,5.6a10.283,10.283,0,0,1-.1,1.7h-9.4c0,2.7,1.6,4.1,4.8,4.1a15.593,15.593,0,0,0,4-.5v1.9a17.515,17.515,0,0,1-4.3.5c-4.6,0-6.9-2.3-6.9-6.8C180.8,30.7,182.9,28.5,187,28.5Zm-3.8,5.4h7.2c-.1-2.3-1.2-3.5-3.4-3.5C184.6,30.4,183.4,31.5,183.2,33.9Z" fill="none" stroke="#3f3f41" stroke-width="0.25"/>
    </g>
  </g>
</svg>
