<svg xmlns="http://www.w3.org/2000/svg" width="50" height="50" viewBox="0 0 50 50">
  <g id="icon" transform="translate(-1348 -248)">
    <g id="Pfad_1" transform="translate(1348 248)" fill="#fff"/>
    <g id="key-round" transform="translate(1361 261.038)">
      <path id="Pfad_446" d="M2.586,17.414A2,2,0,0,0,2,18.828V21a1,1,0,0,0,1,1H6a1,1,0,0,0,1-1V20a1,1,0,0,1,1-1H9a1,1,0,0,0,1-1V17a1,1,0,0,1,1-1h.172a2,2,0,0,0,1.414-.586L13.4,14.6a6.5,6.5,0,1,0-4-4Z" fill="#2fb1ce" stroke="white" stroke-linecap="round" stroke-linejoin="round" stroke-width="1"/>
      <circle id="Ellipse_247" cx="0.5" cy="0.5" r="0.5" transform="translate(16 7)" stroke="white" stroke-linecap="round" stroke-linejoin="round" stroke-width="2"/>
    </g>
  </g>
</svg>
