<?xml version="1.0" encoding="UTF-8"?>
<svg id="Ebene_1" xmlns="http://www.w3.org/2000/svg" version="1.1" viewBox="110 12.5 80 50" width="80" height="50">
    <!-- Generator: Adobe Illustrator 29.4.0, SVG Export Plug-In . SVG Version: 2.1.0 Build 152)  -->
    <rect fill="#fff" width="300" height="75"/>
    <circle fill="#29b0cc" cx="150" cy="37" r="20"/>
    <path fill="#" d="M154.9,37l14.1-14.1c1.4-1.4,1.4-3.6,0-4.9s-3.6-1.4-4.9,0l-14.1,14.1-14.1-14.1c-1.4-1.4-3.6-1.4-4.9,0s-1.4,3.6,0,4.9l14.1,14.1-14.1,14.1c-1.4,1.4-1.4,3.6,0,4.9.7.7,1.6,1,2.5,1s1.8-.3,2.5-1l14.1-14.1,14.1,14.1c.7.7,1.6,1,2.5,1s1.8-.3,2.5-1c1.4-1.4,1.4-3.6,0-4.9l-14.1-14.1h0Z"/>
</svg>
