<?xml version="1.0" encoding="UTF-8" standalone="no"?>
<svg
   width="21.067108"
   height="21.067104"
   viewBox="0 0 21.067108 21.067104"
   version="1.1"
   id="svg1"
   xmlns="http://www.w3.org/2000/svg"
   xmlns:svg="http://www.w3.org/2000/svg">
  <defs
     id="defs1" />
  <g
     id="icon"
     transform="translate(-1362.5,-262.47089)">
    <g
       id="Pfad_1"
       transform="translate(1348,248)"
       fill="#ffffff" />
    <g
       id="key-round"
       transform="translate(1361,261.038)">
      <path
         id="Pfad_446"
         d="M 2.586,17.414 A 2,2 0 0 0 2,18.828 V 21 a 1,1 0 0 0 1,1 h 3 a 1,1 0 0 0 1,-1 v -1 a 1,1 0 0 1 1,-1 h 1 a 1,1 0 0 0 1,-1 v -1 a 1,1 0 0 1 1,-1 h 0.172 a 2,2 0 0 0 1.414,-0.586 L 13.4,14.6 a 6.5,6.5 0 1 0 -4,-4 z"
         fill="#2fb1ce"
         stroke="#ffffff"
         stroke-linecap="round"
         stroke-linejoin="round"
         stroke-width="1" />
      <circle
         id="Ellipse_247"
         cx="0.5"
         cy="0.5"
         r="1.5"
         transform="translate(16,7)"
         fill="#ffffff"

         />
    </g>
  </g>
</svg>
