<svg xmlns="http://www.w3.org/2000/svg" xmlns:xlink="http://www.w3.org/1999/xlink" width="64" height="64.033" viewBox="0 0 64 64.033">
  <defs>
    <clipPath id="clip-path">
      <rect id="Rechteck_967" data-name="Rechteck 967" width="16" height="16" fill="none" stroke="#fff" stroke-width="1"/>
    </clipPath>
  </defs>
  <g id="icon" transform="translate(-298 -707)">
    <g id="Gruppe_793" data-name="Gruppe 793" transform="translate(297.6 706.6)">
      <g id="Gruppe_794" data-name="Gruppe 794">
        <rect id="Rechteck_962" data-name="Rechteck 962" width="16.667" height="16.667" rx="1" transform="translate(2.4 2.4)" fill="none" stroke="#3e3d40" stroke-linecap="round" stroke-linejoin="round" stroke-width="4"/>
        <rect id="Rechteck_963" data-name="Rechteck 963" width="16.667" height="16.667" rx="1" transform="translate(45.733 2.4)" fill="none" stroke="#3e3d40" stroke-linecap="round" stroke-linejoin="round" stroke-width="4"/>
        <rect id="Rechteck_964" data-name="Rechteck 964" width="16.667" height="16.667" rx="1" transform="translate(2.4 45.733)" fill="none" stroke="#3e3d40" stroke-linecap="round" stroke-linejoin="round" stroke-width="4"/>
        <path id="Pfad_904" data-name="Pfad 904" d="M62.4,45.733h-10A6.667,6.667,0,0,0,45.733,52.4v10" fill="none" stroke="#3e3d40" stroke-linecap="round" stroke-linejoin="round" stroke-width="4"/>
        <line id="Linie_10" data-name="Linie 10" y2="0.033" transform="translate(62.4 62.4)" fill="none" stroke="#3e3d40" stroke-linecap="round" stroke-linejoin="round" stroke-width="4"/>
        <path id="Pfad_905" data-name="Pfad 905" d="M32.4,15.733v10A6.667,6.667,0,0,1,25.733,32.4h-10" fill="none" stroke="#3e3d40" stroke-linecap="round" stroke-linejoin="round" stroke-width="4"/>
        <line id="Linie_11" data-name="Linie 11" x2="0.033" transform="translate(2.4 32.4)" fill="none" stroke="#3e3d40" stroke-linecap="round" stroke-linejoin="round" stroke-width="4"/>
        <line id="Linie_12" data-name="Linie 12" x2="0.033" transform="translate(32.4 2.4)" fill="none" stroke="#3e3d40" stroke-linecap="round" stroke-linejoin="round" stroke-width="4"/>
        <line id="Linie_13" data-name="Linie 13" y2="0.033" transform="translate(32.4 45.733)" fill="none" stroke="#3e3d40" stroke-linecap="round" stroke-linejoin="round" stroke-width="4"/>
        <line id="Linie_14" data-name="Linie 14" x2="3.333" transform="translate(45.733 32.4)" fill="none" stroke="#3e3d40" stroke-linecap="round" stroke-linejoin="round" stroke-width="4"/>
        <line id="Linie_15" data-name="Linie 15" y2="0.033" transform="translate(62.4 32.4)" fill="none" stroke="#3e3d40" stroke-linecap="round" stroke-linejoin="round" stroke-width="4"/>
        <line id="Linie_16" data-name="Linie 16" y1="3.333" transform="translate(32.4 59.067)" fill="none" stroke="#3e3d40" stroke-linecap="round" stroke-linejoin="round" stroke-width="4"/>
      </g>
    </g>
       <g id="Rechteck_965" data-name="Rechteck 965" transform="translate(314 723)" fill="#29b0cc" stroke="#efefef" stroke-width="4">
      <rect width="32" height="32" rx="4" stroke="none"/>
      <rect x="-2" y="-2" width="36" height="36" rx="6" fill="none"/>
    </g>

    <g xmlns="http://www.w3.org/2000/svg" width="24" height="24"  transform="translate(318 727)" viewBox="0 0 24 24" fill="none" stroke="#fff" stroke-width="2" stroke-linecap="round" stroke-linejoin="round" class="lucide lucide-text-cursor-input-icon lucide-text-cursor-input">
      <path d="M12 20h-1a2 2 0 0 1-2-2 2 2 0 0 1-2 2H6"/>
      <path d="M13 8h7a2 2 0 0 1 2 2v4a2 2 0 0 1-2 2h-7"/>
      <path d="M5 16H4a2 2 0 0 1-2-2v-4a2 2 0 0 1 2-2h1"/>
      <path d="M6 4h1a2 2 0 0 1 2 2 2 2 0 0 1 2-2h1"/>
      <path d="M9 6v12"/>
    </g>
  </g>
</svg>
