<svg xmlns="http://www.w3.org/2000/svg" xmlns:xlink="http://www.w3.org/1999/xlink" width="30" height="30" viewBox="0 0 30 30">
    <defs>
        <clipPath id="clip-path">
            <rect id="Rechteck_571" data-name="Rechteck 571" width="18" height="12.207" transform="translate(0 0)" fill="#29b0cc"/>
        </clipPath>
    </defs>
    <g id="icon" transform="translate(-304 -546)">
        <circle id="Ellipse_173" data-name="Ellipse 173" cx="15" cy="15" r="15" transform="translate(304 546)" fill="#fff"/>
    <g id="Gruppe_172" data-name="Gruppe 172" transform="translate(310 556)">
        <g id="Gruppe_171" data-name="Gruppe 171" clip-path="url(#clip-path)">
            <path id="Pfad_346" data-name="Pfad 346" d="M17.753,3.8a.8.8,0,0,0-.1-1.247,15.915,15.915,0,0,0-17.294,0A.8.8,0,0,0,.137,3.669.826.826,0,0,0,.248,3.8.879.879,0,0,0,1.34,3.91a14.237,14.237,0,0,1,15.322,0A.877.877,0,0,0,17.753,3.8M14.1,7.455A.781.781,0,0,0,13.932,6.2a10.909,10.909,0,0,0-9.862,0A.781.781,0,0,0,3.9,7.455l.025.025a.891.891,0,0,0,1.023.151,9.228,9.228,0,0,1,8.1,0,.888.888,0,0,0,1.023-.152l.025-.025m-3.324,3.324a.7.7,0,0,0-.067-1.105,3.349,3.349,0,0,0-3.415,0,.7.7,0,0,0-.067,1.105l1.182,1.182a.837.837,0,0,0,1.184,0h0l1.184-1.184Z" fill="#29b0cc"/>
        </g>
    </g>
  </g>
</svg>
