<?xml version="1.0" encoding="UTF-8"?>
<svg id="Ebene_1" xmlns="http://www.w3.org/2000/svg" version="1.1" viewBox="0 0 340 80">
  <!-- Generator: Adobe Illustrator 29.6.1, SVG Export Plug-In . SVG Version: 2.1.1 Build 9)  -->
  <defs>
    <style>
      .st0 {
        fill: #3e3d40;
      }

      .st1 {
        fill: #3f3e41;
      }

      .st2 {
        fill: #29b0cc;
      }
    </style>
  </defs>
  <path class="st1" d="M39.8,15.2c-13.1,0-19.8,7-19.8,20.8,0,13.7,6.7,20.7,19.8,20.7s19.8-7,19.8-20.7-6.7-20.8-19.8-20.8ZM39.8,50.1c-8,0-11.8-4.7-11.8-14.3s3.9-14,11.8-14,11.8,4.6,11.8,14-3.9,14.3-11.8,14.3Z"/>
  <path class="st1" d="M85.3,15.2c-5.8,0-11.4.6-16.8,1.7h-.3v54.6h7.9v-16.5c2.9,1.2,6,1.8,9.1,1.8,13.3,0,20.1-7.3,20.1-21.8s-6.7-19.7-20-19.7ZM76.1,22.8c2.6-.6,5.7-.9,9.1-.9,8.2,0,12.2,4.2,12.2,12.9s-4,14.9-12.3,14.9-6.3-.7-9-2v-25Z"/>
  <path class="st1" d="M134,15.2c-4.9,0-9.4,1.7-13.5,4.9l-1.2-4.9h-5.5v41.5h7.9v-29.8c3.6-3.3,7.4-4.9,11.3-4.9,5.8,0,8.7,2.8,8.7,8.7v26.1h7.9v-26c0-10.3-5.3-15.6-15.6-15.6Z"/>
  <rect class="st1" x="158.2" y="48.7" width="7.9" height="7.9"/>
  <polygon class="st1" points="188.7 46.4 177.4 15.4 177.3 15.2 168.7 15.2 184.4 56.4 184.5 56.7 191.7 56.7 208.4 15.7 208.6 15.2 200 15.2 188.7 46.4"/>
  <path class="st1" d="M264.4,8.6h-5.2v36.7c0,7.5,3.6,11.4,10.6,11.4h7.2v-6.6h-5.3c-3.1,0-4.5-1.7-4.5-5.3v-23h9.9v-6.6h-11.1l-1.6-6.6Z"/>
  <path class="st1" d="M302.2,15.2c-12.7,0-19.1,6.8-19.1,20.3s7.2,21.2,21.4,21.2,9.6-.5,13.2-1.6h.3v-6.7h-.5c-3.5,1.2-7.7,1.7-12.2,1.7-9.4,0-14.1-3.8-14.2-11.7h28.6v-.3c.3-1.9.4-3.6.4-5.3,0-11.7-6-17.6-17.8-17.6ZM302.2,21.7c6.5,0,9.8,3.3,10.1,9.9h-21.2c.6-6.7,4.2-9.9,11.2-9.9Z"/>
  <path class="st0" d="M232.9,15.2c-13.1,0-19.8,7-19.8,20.8,0,13.7,6.7,20.7,19.8,20.7s19.8-7,19.8-20.7-6.7-20.8-19.8-20.8ZM232.9,50.1c-8,0-11.8-4.7-11.8-14.3s3.9-14,11.8-14,11.8,4.6,11.8,14-3.9,14.3-11.8,14.3Z"/>
  <path class="st2" d="M237.9,35.9l15-15c1.4-1.4,1.4-3.6,0-4.9s-3.6-1.4-4.9,0l-15,15-15-15c-1.4-1.4-3.6-1.4-4.9,0s-1.4,3.6,0,4.9l15,15-15,15c-1.4,1.4-1.4,3.6,0,4.9s1.6,1,2.5,1,1.8-.3,2.5-1l15-15,15,15c.7.7,1.6,1,2.5,1s1.8-.3,2.5-1c1.4-1.4,1.4-3.6,0-4.9l-15-15Z"/>
</svg>