<?xml version="1.0" encoding="UTF-8"?>
<svg id="Ebene_1" xmlns="http://www.w3.org/2000/svg" version="1.1" viewBox="0 0 193.5 68">
  <!-- Generator: Adobe Illustrator 29.2.0, SVG Export Plug-In . SVG Version: 2.1.0 Build 108)  -->
  <defs>
    <style>
      .st0 {
        fill: #2fb1ce;
      }

      .st1 {
        isolation: isolate;
      }

      .st2 {
        fill: #3f3f41;
      }
    </style>
  </defs>
  <rect id="Rechteck_216" class="st2" x="77.4" y="2.8" width=".8" height="62.4"/>
  <path id="Pfad_73" class="st0" d="M62,13.5c-.6-.4-1.3-.7-2-.9v-.3c-.5-3.3-2.7-5.1-6.2-5.5-5.2-.5-5.4,3.7-9.1,5.6-1.4.8-2.9,1.3-4.5,1.5-2.9.3-5.8-.3-8.4-1.6-4.4-2-11.1-8-15.9-11.3S1,3.8,1,3.8c0,0,9.6,4.6,13,8,3.8,3.8,6.4,8.6,7.5,13.8.7,2.6,1.6,5.3,1.6,5.3,0,0-2,6.4-7.4,8.6-3.4,1.4-8.8.7-8.8.7,0,0-2,6.5,1.2,11.2,2.5,3.7,8.1,6.4,8.1,6.4,1.2-2.3,2.6-4.4,4.1-6.5,1.7-2,4-3.3,6.6-3.6,5-.7,10.4,1.6,15.5,5.1,6.7,4.5,15.5,15.2,15.5,15.2,0,0,1.8-16.7-2.4-27.9-1.8-4.3-2.6-9-2.3-13.7,0-5.4,1.8-7.1,1.8-7.1,2.1-2,2.9-1.2,4.3-2.8.3-.4.5-.8.7-1.3.3,0,.6-.1.9-.1,1.1,0,2.9.1,2.9.1-.4-.7-1.1-1.3-1.8-1.7ZM46.7,39.4c-3.7,3.1-4.4,4.2-8.3,4.4s-8,.4-9.9-1.3c0,0-2.1-1-2.3-1.8-.4-.8-.4-1.7,0-2.4,1.9-2.7,4.1-5.3,6.4-7.7,1.9-1.8,5.7-5,7-5.4s3.6-1.1,3.6-1.1c1.1.4,2.1.9,3,1.7,1.5,1.2,5.1,6.5,5.1,6.5-.8,2.8-2.4,5.3-4.6,7.1Z"/>
  <path id="Pfad_74" class="st2" d="M58.9,64.4l-.7-.7s-9.3-9.7-15.3-12.8c-.6-.3-1.2-.6-1.8-1-2.7-1.5-5.4-3.1-9.2-3-4,0-7.2,1.6-9.1,4.2-1.2,2-2.3,4.1-3.3,6.2l-.2.4h-.4c-.2-.2-5.6-2.3-8.2-5.5-3.5-4.2-2-10.5-2-10.8v-.3h.4c.1,0,5,.2,7.9-1.3,3.5-1.8,5.2-3,6.7-5.9-.3-.9-1.7-4.9-2.6-6.9-2.3-5.6-4.9-9.7-7.9-12C9.8,12.2.8,8.6.8,8.5l-.8-.3.6-.4c.4-.3,9.1-6.6,14-3.8,1.8,1,3.9,2.4,6.2,3.9,3.4,2.2,6.9,4.5,9.4,5.5,2.4,1,5.1,1.3,7.7.8,1.4-.3,2.8-.9,4-1.7,1-.7,1.9-1.6,2.6-2.7,1.2-1.6,2.4-3.3,5.6-3.3h0v.8c-2.8,0-3.8,1.3-5,2.9-.7,1.2-1.7,2.2-2.8,2.9-1.3.8-2.7,1.4-4.2,1.8-2.8.5-5.6.2-8.2-.8-2.6-1-6.1-3.3-9.5-5.6-2.2-1.4-4.3-2.8-6.1-3.8-3.8-2.1-10.4,2-12.5,3.3,2.3.9,9,3.8,12,6.2,3,2.4,5.8,6.6,8.2,12.3.9,2.3,2.6,7.1,2.6,7.1v.2c.1,0,0,.2,0,.2-1.6,3.2-3.5,4.6-7.2,6.4-2.7,1.3-6.7,1.4-7.9,1.4-.2,1.3-.9,6.3,1.9,9.7,2.1,2.6,6.2,4.5,7.5,5,.9-2.1,2-4.1,3.2-6,2.1-2.8,5.5-4.4,9.8-4.5,4,0,7,1.6,9.7,3.1.6.3,1.2.7,1.7,1,5.2,2.7,12.5,9.9,14.8,12.2,0-3.6-.4-16.1-4.4-24.5-.6-1.3-1.4-2.9-2.3-4.6,0,.6-.4,1.3-.8,1.8-1.5,2.5-7,10.4-16.6,9.4-5.5-.6-7.5-2.2-8.3-3.5-.5-.7-.6-1.6-.3-2.4,1.6-3.9,12.6-15.6,17.7-14.8,3,.4,5.6,3.3,7.8,7,0-1.9-.2-3.7-.5-5.6-.8-4.9,1-6.8,1.2-7,.6-.8,1.4-1.4,2.3-1.8.6-.2,1.1-.6,1.5-1.1l.7.5c-.5.6-1.1,1.1-1.8,1.4-.8.4-1.5.9-2,1.6h0s-1.7,1.7-1,6.3c.5,2.3.6,4.7.4,7,1,1.8,1.9,3.6,2.8,5.4,4.8,10.1,4.4,25.8,4.4,25.9,0,0,0,1.1,0,1.1ZM42.8,24.6c-4.5,0-14.9,10.4-16.4,14.4-.2.5-.1,1.1.2,1.6.5.9,2.2,2.5,7.6,3.1,9.1,1,14.4-6.6,15.8-9,.5-.8.8-1.6.9-2.5-2.1-3.6-4.7-7.1-7.7-7.6,0,0-.4,0-.4,0Z"/>
  <path id="Pfad_75" class="st2" d="M58.9,64.4l-.7-.7s-9.3-9.7-15.3-12.8c-.6-.3-1.2-.6-1.8-1-2.7-1.5-5.4-3.1-9.2-3-4,0-7.2,1.6-9.1,4.2-1.2,2-2.3,4.1-3.3,6.2l-.2.4h-.4c-.2-.2-5.6-2.3-8.2-5.5-3.5-4.2-2-10.5-2-10.8v-.3h1.2c1.4,0,4.9,0,7.2-1.3,3.5-1.8,5.2-3,6.7-5.9-.3-.9-1.7-4.9-2.6-6.9-2.3-5.6-4.9-9.7-7.9-12C9.8,12.2.8,8.6.8,8.5l-.8-.3.6-.4c.3-.2,6.3-4.5,11.1-4.5s2.1.2,3,.7c1.8,1,3.9,2.4,6.2,3.9,3.4,2.2,6.9,4.5,9.4,5.5,2.4,1,5.1,1.3,7.7.8,1.4-.3,2.8-.9,4-1.7,1-.7,1.9-1.6,2.6-2.7,1.2-1.6,2.4-3.3,5.6-3.3h0c3.5,0,5.8,1.8,6.5,4.9h0c.6.2,1.2.4,1.8.6.8.3,1.5,1,1.9,1.8l.2.6h-.8c-.3,0-1.7,0-2.6.1h-.5c0,.5-.3.9-.5,1.3-.5.6-1.1,1.1-1.8,1.4-.8.4-1.5.9-2,1.6h0s-1.7,1.7-1,6.3c.5,2.3.6,4.7.4,7,1,1.8,1.9,3.7,2.8,5.4,4.8,10.1,4.4,25.8,4.4,25.9l-.2,1h0ZM32.4,46.1c3.8,0,6.7,1.6,9.2,3.1.6.3,1.2.7,1.7,1,5.2,2.7,12.5,9.9,14.8,12.2,0-3.6-.4-16.1-4.4-24.5-.8-1.8-1.8-3.7-2.8-5.5v-.2c.2-2.3,0-4.6-.4-6.8-.8-4.9,1-6.8,1.2-7,.6-.8,1.4-1.4,2.3-1.8.6-.2,1.1-.6,1.5-1.1.2-.3.4-.7.4-1.1v-.4h.3c.3-.2.5-.2.8-.2.6,0,1.4-.1,2-.1-.3-.3-.7-.6-1.1-.7-.6-.3-1.2-.5-1.8-.6h-.2v-.7c-.8-3.5-3.6-4.2-5.7-4.2h0c-2.7,0-3.7,1.4-4.9,2.9-.7,1.2-1.7,2.2-2.8,2.9-1.3.8-2.7,1.4-4.2,1.8-2.8.5-5.6.2-8.2-.8-2.6-1-6.1-3.3-9.5-5.6-2.2-1.4-4.3-2.8-6.1-3.8-.8-.4-1.7-.6-2.6-.6-3.7,0-8.3,2.8-9.9,3.9,2.3.9,9,3.8,12,6.2,3,2.4,5.8,6.6,8.2,12.3.9,2.3,2.6,7.1,2.6,7.1v.2c.1,0,0,.2,0,.2-1.6,3.2-3.5,4.6-7.2,6.4-2.5,1.3-6.1,1.4-7.6,1.4h-.4c-.2,1.3-.9,6.3,1.9,9.7,2.1,2.6,6.2,4.5,7.5,5,.9-2.1,2-4.1,3.2-6,2.1-2.8,5.5-4.4,9.8-4.5h.5,0Z"/>
  <g class="st1">
    <path class="st2" d="M92.8,34.1c0-4.4,2.1-6.7,6.3-6.7s6.3,2.2,6.3,6.7-2.1,6.7-6.3,6.7-6.3-2.2-6.3-6.7ZM99.1,38.9c2.7,0,4-1.6,4-4.8s-1.3-4.7-4-4.7-4,1.6-4,4.7,1.3,4.8,4,4.8Z"/>
    <path class="st2" d="M114.1,27.5c-1.9,0-3.7,0-5.5.5h.1v17.7h2.3v-5c.5,0,1.4,0,3.1,0,4.2,0,6.4-2.8,6.4-7s-2.1-6.3-6.4-6.3ZM114.1,38.8c-1.1,0-2.1-.2-3-.7v-8.4c.9-.2.4-.3,3.1-.3s4.1,1.1,4.1,4.4-1.4,5-4.2,5Z"/>
    <path class="st2" d="M123.7,40.8v-13.3h1.6l.4,1.7c1.4-1.1,2.9-1.7,4.5-1.7,3.3,0,5,1.7,5,5v8.4h-2.3v-8.4c0-2-1-3-3-3s-2.6.6-3.8,1.7v9.7h-2.4Z"/>
    <path class="st2" d="M140.7,38.4v2.3h-2.3v-2.3h2.3Z"/>
    <path class="st2" d="M142,27.5h2.5l3.8,10.4,3.8-10.4h2.5l-5.4,13.3h-2.2l-5.1-13.3h0Z"/>
    <path class="st2" d="M155.9,34.1c0-4.4,2.1-6.7,6.3-6.7s6.3,2.2,6.3,6.7-2.1,6.7-6.3,6.7-6.3-2.2-6.3-6.7ZM162.3,38.9c2.7,0,4-1.6,4-4.8s-1.3-4.7-4-4.7-4,1.6-4,4.7,1.3,4.8,4,4.8Z"/>
    <path class="st2" d="M171.8,25.3h1.5l.5,2.2h3.6v1.9h-3.2v7.7c0,1.2.5,1.9,1.6,1.9h1.6v1.9h-2.2c-2.2,0-3.4-1.2-3.4-3.6v-11.9h0Z"/>
    <path class="st2" d="M185.9,27.5c3.8,0,5.6,1.9,5.7,5.6s.1,1.7-.1,1.7h-9.4c0,2.7,1.6,4.1,4.8,4.1s2.9-.2,4-.5v1.9c-1.2.3-2.6.5-4.3.5-4.6,0-6.9-2.3-6.9-6.8s2-6.5,6.1-6.5h0ZM182.1,32.8h7.2c0-2.3-1.2-3.5-3.4-3.5s-3.6,1.2-3.8,3.5Z"/>
  </g>
</svg>