<svg xmlns="http://www.w3.org/2000/svg" xmlns:xlink="http://www.w3.org/1999/xlink" width="64" height="64.033" viewBox="0 0 64 64.033">
  <defs>
    <clipPath id="clip-path">
      <rect id="Rechteck_968" data-name="Rechteck 968" width="16" height="16" fill="none" stroke="#fff" stroke-width="1"/>
    </clipPath>
  </defs>
  <g id="icon" transform="translate(-298 -707)">
    <g id="Gruppe_793" data-name="Gruppe 793" transform="translate(297.6 706.6)">
      <g id="Gruppe_794" data-name="Gruppe 794">
        <rect id="Rechteck_962" data-name="Rechteck 962" width="16.667" height="16.667" rx="1" transform="translate(2.4 2.4)" fill="none" stroke="#3e3d40" stroke-linecap="round" stroke-linejoin="round" stroke-width="4"/>
        <rect id="Rechteck_963" data-name="Rechteck 963" width="16.667" height="16.667" rx="1" transform="translate(45.733 2.4)" fill="none" stroke="#3e3d40" stroke-linecap="round" stroke-linejoin="round" stroke-width="4"/>
        <rect id="Rechteck_964" data-name="Rechteck 964" width="16.667" height="16.667" rx="1" transform="translate(2.4 45.733)" fill="none" stroke="#3e3d40" stroke-linecap="round" stroke-linejoin="round" stroke-width="4"/>
        <path id="Pfad_904" data-name="Pfad 904" d="M62.4,45.733h-10A6.667,6.667,0,0,0,45.733,52.4v10" fill="none" stroke="#3e3d40" stroke-linecap="round" stroke-linejoin="round" stroke-width="4"/>
        <line id="Linie_10" data-name="Linie 10" y2="0.033" transform="translate(62.4 62.4)" fill="none" stroke="#3e3d40" stroke-linecap="round" stroke-linejoin="round" stroke-width="4"/>
        <path id="Pfad_905" data-name="Pfad 905" d="M32.4,15.733v10A6.667,6.667,0,0,1,25.733,32.4h-10" fill="none" stroke="#3e3d40" stroke-linecap="round" stroke-linejoin="round" stroke-width="4"/>
        <line id="Linie_11" data-name="Linie 11" x2="0.033" transform="translate(2.4 32.4)" fill="none" stroke="#3e3d40" stroke-linecap="round" stroke-linejoin="round" stroke-width="4"/>
        <line id="Linie_12" data-name="Linie 12" x2="0.033" transform="translate(32.4 2.4)" fill="none" stroke="#3e3d40" stroke-linecap="round" stroke-linejoin="round" stroke-width="4"/>
        <line id="Linie_13" data-name="Linie 13" y2="0.033" transform="translate(32.4 45.733)" fill="none" stroke="#3e3d40" stroke-linecap="round" stroke-linejoin="round" stroke-width="4"/>
        <line id="Linie_14" data-name="Linie 14" x2="3.333" transform="translate(45.733 32.4)" fill="none" stroke="#3e3d40" stroke-linecap="round" stroke-linejoin="round" stroke-width="4"/>
        <line id="Linie_15" data-name="Linie 15" y2="0.033" transform="translate(62.4 32.4)" fill="none" stroke="#3e3d40" stroke-linecap="round" stroke-linejoin="round" stroke-width="4"/>
        <line id="Linie_16" data-name="Linie 16" y1="3.333" transform="translate(32.4 59.067)" fill="none" stroke="#3e3d40" stroke-linecap="round" stroke-linejoin="round" stroke-width="4"/>
      </g>
    </g>
    <g id="Rechteck_965" data-name="Rechteck 965" transform="translate(314 723)" fill="#29b0cc" stroke="#efefef" stroke-width="5">
      <rect width="32" height="32" rx="4" stroke="none"/>
      <rect x="-2.5" y="-2.5" width="37" height="37" rx="6.5" fill="none"/>
    </g>
    <g id="Gruppe_800" data-name="Gruppe 800" transform="translate(322 731)">
      <g id="Gruppe_799" data-name="Gruppe 799" transform="translate(0 -0.001)" clip-path="url(#clip-path)">
        <path id="Pfad_910" data-name="Pfad 910" d="M.778,3.978v-1.6a1.6,1.6,0,0,1,1.6-1.6h1.6" transform="translate(0.022 0.023)" fill="none" stroke="#fff" stroke-linecap="round" stroke-linejoin="round" stroke-width="2"/>
        <path id="Pfad_911" data-name="Pfad 911" d="M11.667.778h1.6a1.6,1.6,0,0,1,1.6,1.6v1.6" transform="translate(0.333 0.023)" fill="none" stroke="#fff" stroke-linecap="round" stroke-linejoin="round" stroke-width="2"/>
        <path id="Pfad_912" data-name="Pfad 912" d="M14.867,11.667v1.6a1.6,1.6,0,0,1-1.6,1.6h-1.6" transform="translate(0.333 0.334)" fill="none" stroke="#fff" stroke-linecap="round" stroke-linejoin="round" stroke-width="2"/>
        <path id="Pfad_913" data-name="Pfad 913" d="M3.978,14.867h-1.6a1.6,1.6,0,0,1-1.6-1.6v-1.6" transform="translate(0.022 0.334)" fill="none" stroke="#fff" stroke-linecap="round" stroke-linejoin="round" stroke-width="2"/>
      </g>
    </g>
  </g>
</svg>
