<svg xmlns="http://www.w3.org/2000/svg" width="100" height="100" viewBox="0 0 100 100">
<g id="code_scannen" data-name="code scannen" transform="translate(-5 -5)">
    <g id="Gruppe_216" data-name="Gruppe 216">
    <rect id="Rechteck_665" data-name="Rechteck 665" width="100" height="100" rx="2" transform="translate(5 5)" fill="#a9dfeb"/>
    <g id="Gruppe_213" data-name="Gruppe 213">
        <rect id="Rechteck_666" data-name="Rechteck 666" width="24.46" height="24.46" rx="1" transform="translate(9.35 9.35)" fill="#29b0cc"/>
        <rect id="Rechteck_667" data-name="Rechteck 667" width="17.66" height="17.66" rx="1" transform="translate(12.74 12.74)" fill="#a9dfeb"/>
        <rect id="Rechteck_668" data-name="Rechteck 668" width="10.87" height="10.87" rx="1" transform="translate(16.14 16.14)" fill="#29b0cc"/>
    </g>
    <g id="Gruppe_214" data-name="Gruppe 214">
        <rect id="Rechteck_669" data-name="Rechteck 669" width="24.46" height="24.46" rx="1" transform="translate(9.35 76.74)" fill="#29b0cc"/>
        <rect id="Rechteck_670" data-name="Rechteck 670" width="17.66" height="17.66" rx="1" transform="translate(12.74 80.14)" fill="#a9dfeb"/>
        <rect id="Rechteck_671" data-name="Rechteck 671" width="10.87" height="10.87" rx="1" transform="translate(16.14 83.53)" fill="#29b0cc"/>
    </g>
    <g id="Gruppe_215" data-name="Gruppe 215">
        <rect id="Rechteck_672" data-name="Rechteck 672" width="24.46" height="24.46" rx="1" transform="translate(75.65 9.35)" fill="#29b0cc"/>
        <rect id="Rechteck_673" data-name="Rechteck 673" width="17.66" height="17.66" rx="1" transform="translate(79.05 12.74)" fill="#a9dfeb"/>
        <rect id="Rechteck_674" data-name="Rechteck 674" width="10.87" height="10.87" rx="1" transform="translate(82.45 16.14)" fill="#29b0cc"/>
    </g>
    <path id="Pfad_419" data-name="Pfad 419" d="M26.73,38.97H10.43a1.093,1.093,0,0,0-1.09,1.09v25a1.093,1.093,0,0,0,1.09,1.09h3.26a1.093,1.093,0,0,0,1.09-1.09V44.41H26.72a1.093,1.093,0,0,0,1.09-1.09V40.06a1.093,1.093,0,0,0-1.09-1.09Z" fill="#29b0cc"/>
    <rect id="Rechteck_675" data-name="Rechteck 675" width="5.43" height="25.82" rx="1" transform="translate(100.11 95.76) rotate(90)" fill="#29b0cc"/>
    <path id="Pfad_420" data-name="Pfad 420" d="M65.47,18.59H44.12V12.88a1.093,1.093,0,0,0-1.09-1.09H39.77a1.093,1.093,0,0,0-1.09,1.09V22.93a1.093,1.093,0,0,0,1.09,1.09h12.5v5.71a1.093,1.093,0,0,0,1.09,1.09h3.26a1.093,1.093,0,0,0,1.09-1.09V24.02h7.77a1.093,1.093,0,0,0,1.09-1.09V19.67a1.093,1.093,0,0,0-1.09-1.09Z" fill="#29b0cc"/>
    <path id="Pfad_421" data-name="Pfad 421" d="M99.02,38.97H91.4a1.093,1.093,0,0,0-1.09,1.09V46H69.56a1.093,1.093,0,0,0-1.09,1.09v3.26a1.093,1.093,0,0,0,1.09,1.09h25a1.074,1.074,0,0,0,1.03-.79,1.048,1.048,0,0,0,.15-.52V44.42h3.27a1.093,1.093,0,0,0,1.09-1.09V40.07a1.093,1.093,0,0,0-1.09-1.09Z" fill="#29b0cc"/>
    <rect id="Rechteck_676" data-name="Rechteck 676" width="10.87" height="5.43" rx="1" transform="translate(66.56 14.78) rotate(180)" fill="#29b0cc"/>
    <path id="Pfad_422" data-name="Pfad 422" d="M67.75,95.76H59.33V71.3a1.093,1.093,0,0,0-1.09-1.09H54.98a1.093,1.093,0,0,0-1.09,1.09V95.76H40.03a1.093,1.093,0,0,0-1.09,1.09v3.26a1.093,1.093,0,0,0,1.09,1.09H67.75a1.093,1.093,0,0,0,1.09-1.09V96.85A1.093,1.093,0,0,0,67.75,95.76Z" fill="#29b0cc"/>
    <rect id="Rechteck_677" data-name="Rechteck 677" width="19.02" height="5.43" rx="1" transform="translate(68.84 79.73) rotate(-90)" fill="#29b0cc"/>
    <path id="Pfad_423" data-name="Pfad 423" d="M52.8,50.52H22.37a1.093,1.093,0,0,0-1.09,1.09v3.26a1.093,1.093,0,0,0,1.09,1.09H37.32V63.7a1.093,1.093,0,0,0,1.09,1.09h3.26a1.093,1.093,0,0,0,1.09-1.09V55.96H52.81a1.093,1.093,0,0,0,1.09-1.09V51.61a1.093,1.093,0,0,0-1.09-1.09Z" fill="#29b0cc"/>
    <rect id="Rechteck_678" data-name="Rechteck 678" width="8.15" height="8.15" rx="1" transform="translate(38.97 34.89)" fill="#29b0cc"/>
    <rect id="Rechteck_679" data-name="Rechteck 679" width="8.15" height="8.15" rx="1" transform="translate(86.52 60.71)" fill="#29b0cc"/>
    <rect id="Rechteck_680" data-name="Rechteck 680" width="8.15" height="8.15" rx="1" transform="translate(38.97 72.93)" fill="#29b0cc"/>
    <path id="Pfad_424" data-name="Pfad 424" d="M96.14,101.17H79.85a1.093,1.093,0,0,1-1.09-1.09v-25a1.093,1.093,0,0,1,1.09-1.09h3.26a1.093,1.093,0,0,1,1.09,1.09V95.73H96.14a1.093,1.093,0,0,1,1.09,1.09v3.26A1.093,1.093,0,0,1,96.14,101.17Z" fill="#29b0cc"/>
    <rect id="Rechteck_681" data-name="Rechteck 681" width="10.87" height="5.43" rx="1" transform="translate(99.43 89.3) rotate(180)" fill="#29b0cc"/>
    </g>
    <rect id="Rechteck_682" data-name="Rechteck 682" width="40" height="40" transform="translate(35 35)" fill="#0d6c7f"/>
    <g id="Gruppe_217" data-name="Gruppe 217">
    <path id="Pfad_425" data-name="Pfad 425" d="M39.89,45.22a.892.892,0,0,1-.89-.89V39.89a.892.892,0,0,1,.89-.89h4.44a.89.89,0,0,1,0,1.78H40.77v3.56a.892.892,0,0,1-.89.89Z" fill="#fff"/>
    <path id="Pfad_426" data-name="Pfad 426" d="M70.11,45.22a.892.892,0,0,1-.89-.89V40.77H65.66a.89.89,0,0,1,0-1.78H70.1a.892.892,0,0,1,.89.89v4.44a.892.892,0,0,1-.89.89Z" fill="#fff"/>
    <path id="Pfad_427" data-name="Pfad 427" d="M44.33,71H39.89a.892.892,0,0,1-.89-.89V65.67a.89.89,0,0,1,1.78,0v3.56h3.56a.89.89,0,0,1,0,1.78Z" fill="#fff"/>
    <path id="Pfad_428" data-name="Pfad 428" d="M70.11,71H65.67a.89.89,0,0,1,0-1.78h3.56V65.66a.89.89,0,0,1,1.78,0V70.1a.892.892,0,0,1-.89.89Z" fill="#fff"/>
    </g>
    <circle id="Ellipse_244" data-name="Ellipse 244" cx="7.69" cy="7.69" r="7.69" transform="translate(47.31 47.31)" fill="#fff"/>
</g>
</svg>
