<svg xmlns="http://www.w3.org/2000/svg" xmlns:xlink="http://www.w3.org/1999/xlink" width="30" height="30" viewBox="0 0 30 30">
  <defs>
    <clipPath id="clip-path">
      <rect id="Rechteck_572" data-name="Rechteck 572" width="18" height="14.113" transform="translate(0 0)" fill="#29b0cc"/>
    </clipPath>
  </defs>
  <g id="icon" transform="translate(-304 -546)">
    <circle id="Ellipse_173" data-name="Ellipse 173" cx="15" cy="15" r="15" transform="translate(304 546)" fill="#fff"/>
    <g id="Gruppe_174" data-name="Gruppe 174" transform="translate(310 554)">
      <g id="Gruppe_173" data-name="Gruppe 173" clip-path="url(#clip-path)">
        <path id="Pfad_347" data-name="Pfad 347" d="M12.234,1.882A15.027,15.027,0,0,0,9,1.53,14.861,14.861,0,0,0,.233,4.373a.578.578,0,0,0-.117.811.65.65,0,0,0,.059.069.62.62,0,0,0,.8.059A13.779,13.779,0,0,1,11.213,2.9ZM9,5.115A11.286,11.286,0,0,0,2.827,6.939a.573.573,0,0,0-.155.8.553.553,0,0,0,.08.094.627.627,0,0,0,.779.078A10.083,10.083,0,0,1,7.725,6.389Zm3.1,1.678.938-.938a11.315,11.315,0,0,1,2.133,1.084.575.575,0,0,1,.151.8.543.543,0,0,1-.075.09.629.629,0,0,1-.78.078A10.055,10.055,0,0,0,12.1,6.793ZM9,9.9,10.115,8.78a7.708,7.708,0,0,1,2.405.761.556.556,0,0,1,.12.9l-.018.018a.636.636,0,0,1-.73.108A6.542,6.542,0,0,0,9,9.9m5.861-5.861.893-.893a15.15,15.15,0,0,1,2.013,1.231.58.58,0,0,1,.118.811.68.68,0,0,1-.061.07.62.62,0,0,1-.8.059,13.715,13.715,0,0,0-2.164-1.278m-4.642,7.988a.5.5,0,0,1,.048.789l-.845.843a.6.6,0,0,1-.845,0l-.845-.845a.5.5,0,0,1,.048-.788,2.392,2.392,0,0,1,2.44,0ZM15.423.186a.634.634,0,0,1,.9.9L3.474,13.928a.634.634,0,0,1-.9-.9Z" fill="#29b0cc"/>
      </g>
    </g>
  </g>
</svg>
